<?xml version="1.0" encoding="utf-8"?>
<!-- Generator: Adobe Illustrator 20.1.0, SVG Export Plug-In . SVG Version: 6.00 Build 0)  -->
<svg version="1.1" id="Ebene_1" xmlns="http://www.w3.org/2000/svg" xmlns:xlink="http://www.w3.org/1999/xlink" x="0px" y="0px"
	 viewBox="0 0 841.9 465.2" style="enable-background:new 0 0 841.9 465.2;" xml:space="preserve">
<style type="text/css">
	.st0{fill:#B2B2B2;}
	.st1{fill:#00162C;}
</style>
<path class="st0" d="M791.3,292H639V40.4h-94V292h-23.7L313.8,40.4h-94.7V292H60.4v24.3h158.7v115.2h94V316.3h136.2l95,115.2H639
	V316.3h152.3V292z M313,292V153h1.5l114.7,139H313z"/>
<g>
	<path class="st1" d="M134.3,144.6h34.9l66.2,107h0.4v-107h32.9v159.6h-35.1l-66-106.8h-0.4v106.8h-32.9V144.6z"/>
	<path class="st1" d="M332.3,144.6h35.2v159.6h-35.2V144.6z"/>
	<path class="st1" d="M441.4,144.6h35.2v130h77.8v29.5H441.4V144.6z"/>
	<path class="st1" d="M611.9,144.6h119.4v29.5h-84.2v34.2h77.3v27.3h-77.3v39.1h86v29.5H611.9V144.6z"/>
</g>
</svg>
